<svg width="27" height="27" viewBox="0 0 27 27" fill="none" xmlns="http://www.w3.org/2000/svg">
<path d="M13.5 26.5C6.31177 26.5 0.5 20.6882 0.5 13.5C0.5 6.31177 6.31177 0.5 13.5 0.5C20.6882 0.5 26.5 6.31177 26.5 13.5C26.5 20.6882 20.6882 26.5 13.5 26.5ZM13.5 2.02941C7.15294 2.02941 2.02941 7.15294 2.02941 13.5C2.02941 19.8471 7.15294 24.9706 13.5 24.9706C19.8471 24.9706 24.9706 19.8471 24.9706 13.5C24.9706 7.15294 19.8471 2.02941 13.5 2.02941Z" fill="black"/>
<path d="M6.5 12.5H20.5V14.5H6.5V12.5Z" fill="black"/>
<path d="M12.5 6.5H14.5V20.5H12.5V6.5Z" fill="black"/>
</svg>
