<svg width="37" height="38" viewBox="0 0 37 38" fill="none" xmlns="http://www.w3.org/2000/svg">
<path d="M0 2.08571C0 1.66516 0.167077 1.26182 0.464477 0.964445C0.761877 0.667066 1.16524 0.5 1.58583 0.5H2.76568C4.77439 0.5 5.97962 1.85103 6.66681 3.10691C7.12564 3.94417 7.45761 4.91463 7.71768 5.79417C7.78803 5.78862 7.85856 5.7858 7.92913 5.78571H34.3553C36.1103 5.78571 37.379 7.46446 36.8969 9.15377L33.0317 22.7042C32.6851 23.9196 31.952 24.989 30.9432 25.7505C29.9345 26.512 28.705 26.9241 27.4411 26.9243H14.8645C13.5905 26.9244 12.3518 26.5061 11.3387 25.7337C10.3256 24.9614 9.59424 23.8777 9.25699 22.6493L7.65002 16.7885L4.98583 7.80697L4.98372 7.79006C4.65387 6.59126 4.34516 5.46857 3.88421 4.63131C3.4423 3.81731 3.08707 3.67143 2.76779 3.67143H1.58583C1.16524 3.67143 0.761877 3.50436 0.464477 3.20698C0.167077 2.9096 0 2.50627 0 2.08571ZM10.7265 16.0189L12.3145 21.8099C12.6316 22.9558 13.674 23.7529 14.8645 23.7529H27.4411C28.0156 23.7529 28.5745 23.5657 29.0331 23.2197C29.4917 22.8737 29.825 22.3877 29.9827 21.8353L33.6554 8.95714H8.63746L10.6969 15.9068L10.7265 16.0189ZM17.9727 33.2714C17.9727 34.3929 17.5271 35.4685 16.7341 36.2615C15.941 37.0545 14.8654 37.5 13.7438 37.5C12.6223 37.5 11.5466 37.0545 10.7536 36.2615C9.96049 35.4685 9.51495 34.3929 9.51495 33.2714C9.51495 32.1499 9.96049 31.0744 10.7536 30.2814C11.5466 29.4884 12.6223 29.0429 13.7438 29.0429C14.8654 29.0429 15.941 29.4884 16.7341 30.2814C17.5271 31.0744 17.9727 32.1499 17.9727 33.2714ZM14.801 33.2714C14.801 32.9911 14.6897 32.7222 14.4914 32.5239C14.2931 32.3257 14.0242 32.2143 13.7438 32.2143C13.4634 32.2143 13.1945 32.3257 12.9963 32.5239C12.798 32.7222 12.6866 32.9911 12.6866 33.2714C12.6866 33.5518 12.798 33.8207 12.9963 34.0189C13.1945 34.2172 13.4634 34.3286 13.7438 34.3286C14.0242 34.3286 14.2931 34.2172 14.4914 34.0189C14.6897 33.8207 14.801 33.5518 14.801 33.2714ZM32.7737 33.2714C32.7737 34.3929 32.3282 35.4685 31.5351 36.2615C30.742 37.0545 29.6664 37.5 28.5449 37.5C27.4233 37.5 26.3477 37.0545 25.5546 36.2615C24.7615 35.4685 24.316 34.3929 24.316 33.2714C24.316 32.1499 24.7615 31.0744 25.5546 30.2814C26.3477 29.4884 27.4233 29.0429 28.5449 29.0429C29.6664 29.0429 30.742 29.4884 31.5351 30.2814C32.3282 31.0744 32.7737 32.1499 32.7737 33.2714ZM29.6021 33.2714C29.6021 32.9911 29.4907 32.7222 29.2924 32.5239C29.0942 32.3257 28.8252 32.2143 28.5449 32.2143C28.2645 32.2143 27.9956 32.3257 27.7973 32.5239C27.599 32.7222 27.4876 32.9911 27.4876 33.2714C27.4876 33.5518 27.599 33.8207 27.7973 34.0189C27.9956 34.2172 28.2645 34.3286 28.5449 34.3286C28.8252 34.3286 29.0942 34.2172 29.2924 34.0189C29.4907 33.8207 29.6021 33.5518 29.6021 33.2714Z" fill="#0E7490"/>
</svg>
