<svg width="23" height="27" viewBox="0 0 23 27" fill="none" xmlns="http://www.w3.org/2000/svg">
<path d="M7.5 9.5H9.5V20.5H7.5V9.5ZM13.5 9.5H15.5V20.5H13.5V9.5Z" fill="black"/>
<path d="M0.5 4.21429V6.07143H2.33333V24.6429C2.33333 25.1354 2.52649 25.6078 2.8703 25.9561C3.21412 26.3043 3.68044 26.5 4.16667 26.5H18.8333C19.3196 26.5 19.7859 26.3043 20.1297 25.9561C20.4735 25.6078 20.6667 25.1354 20.6667 24.6429V6.07143H22.5V4.21429H0.5ZM4.16667 24.6429V6.07143H18.8333V24.6429H4.16667ZM7.83333 0.5H15.1667V2.35714H7.83333V0.5Z" fill="black"/>
</svg>
